<?xml version="1.0" encoding="UTF-8" standalone="no"?>
<!-- Created with Inkscape (http://www.inkscape.org/) -->

<svg
   width="297mm"
   height="210mm"
   viewBox="0 0 297 210"
   version="1.1"
   id="svg1181"
   xml:space="preserve"
   inkscape:version="1.2.2 (b0a8486, 2022-12-01)"
   sodipodi:docname="bubble-yvonne.svg"
   xmlns:inkscape="http://www.inkscape.org/namespaces/inkscape"
   xmlns:sodipodi="http://sodipodi.sourceforge.net/DTD/sodipodi-0.dtd"
   xmlns:xlink="http://www.w3.org/1999/xlink"
   xmlns="http://www.w3.org/2000/svg"
   xmlns:svg="http://www.w3.org/2000/svg"><sodipodi:namedview
     id="namedview1183"
     pagecolor="#ffffff"
     bordercolor="#000000"
     borderopacity="0.25"
     inkscape:showpageshadow="2"
     inkscape:pageopacity="0.0"
     inkscape:pagecheckerboard="0"
     inkscape:deskcolor="#d1d1d1"
     inkscape:document-units="mm"
     showgrid="false"
     inkscape:zoom="0.914906"
     inkscape:cx="545.95772"
     inkscape:cy="485.29575"
     inkscape:window-width="1724"
     inkscape:window-height="1310"
     inkscape:window-x="661"
     inkscape:window-y="25"
     inkscape:window-maximized="0"
     inkscape:current-layer="layer1" /><defs
     id="defs1178"><pattern
       inkscape:collect="always"
       xlink:href="#pattern324"
       id="pattern1056"
       patternTransform="matrix(-0.4757762,0,0,-0.4757762,313.99019,569.36432)" /><pattern
       patternTransform="matrix(9.72775,0,0,9.72775,94,-174)"
       patternUnits="userSpaceOnUse"
       x="0"
       y="0"
       width="28.7993"
       height="28.8008"
       id="pattern324"><g
         transform="scale(0.1)"
         id="g322"><g
           id="g320"><g
             clip-path="url(#clipPath290)"
             id="g318"><path
               d="m 287.988,-28.7969 c 15.899,0 28.809,12.8985 28.809,28.7969 0,15.918 -12.91,28.8008 -28.809,28.8008 -15.898,0 -28.789,-12.8828 -28.789,-28.8008 0,-15.8984 12.891,-28.7969 28.789,-28.7969"
               style="fill:#272525;fill-opacity:1;fill-rule:nonzero;stroke:none"
               id="path292" /><path
               d="m 144,-28.7969 c 15.895,0 28.805,12.8985 28.805,28.7969 0,15.918 -12.91,28.8008 -28.805,28.8008 -15.898,0 -28.789,-12.8828 -28.789,-28.8008 0,-15.8984 12.891,-28.7969 28.789,-28.7969"
               style="fill:#272525;fill-opacity:1;fill-rule:nonzero;stroke:none"
               id="path294" /><path
               d="m 287.988,115.195 c 15.899,0 28.809,12.903 28.809,28.809 0,15.906 -12.91,28.801 -28.809,28.801 -15.898,0 -28.789,-12.895 -28.789,-28.801 0,-15.906 12.891,-28.809 28.789,-28.809"
               style="fill:#272525;fill-opacity:1;fill-rule:nonzero;stroke:none"
               id="path296" /><path
               d="m 144,115.195 c 15.895,0 28.805,12.903 28.805,28.809 0,15.906 -12.91,28.801 -28.805,28.801 -15.898,0 -28.789,-12.895 -28.789,-28.801 0,-15.906 12.891,-28.809 28.789,-28.809"
               style="fill:#272525;fill-opacity:1;fill-rule:nonzero;stroke:none"
               id="path298" /><path
               d="m 72.0039,43.2031 c 15.9024,0 28.8121,12.8985 28.8121,28.8008 0,15.9063 -12.9097,28.7971 -28.8121,28.7971 -15.9101,0 -28.8008,-12.8908 -28.8008,-28.7971 0,-15.9023 12.8907,-28.8008 28.8008,-28.8008"
               style="fill:#272525;fill-opacity:1;fill-rule:nonzero;stroke:none"
               id="path300" /><path
               d="m 215.996,43.2031 c 15.899,0 28.789,12.8985 28.789,28.8008 0,15.9063 -12.89,28.7971 -28.789,28.7971 -15.918,0 -28.808,-12.8908 -28.808,-28.7971 0,-15.9023 12.89,-28.8008 28.808,-28.8008"
               style="fill:#272525;fill-opacity:1;fill-rule:nonzero;stroke:none"
               id="path302" /><path
               d="m 72.0039,187.207 c 15.9024,0 28.8121,12.891 28.8121,28.801 0,15.894 -12.9097,28.797 -28.8121,28.797 -15.9101,0 -28.8008,-12.903 -28.8008,-28.797 0,-15.91 12.8907,-28.801 28.8008,-28.801"
               style="fill:#272525;fill-opacity:1;fill-rule:nonzero;stroke:none"
               id="path304" /><path
               d="m 215.996,187.207 c 15.899,0 28.789,12.891 28.789,28.801 0,15.894 -12.89,28.797 -28.789,28.797 -15.918,0 -28.808,-12.903 -28.808,-28.797 0,-15.91 12.89,-28.801 28.808,-28.801"
               style="fill:#272525;fill-opacity:1;fill-rule:nonzero;stroke:none"
               id="path306" /><path
               d="M -0.00390625,-28.7969 C 15.8945,-28.7969 28.8047,-15.8984 28.8047,0 28.8047,15.918 15.8945,28.8008 -0.00390625,28.8008 -15.9023,28.8008 -28.793,15.918 -28.793,0 c 0,-15.8984 12.8907,-28.7969 28.78909375,-28.7969"
               style="fill:#272525;fill-opacity:1;fill-rule:nonzero;stroke:none"
               id="path308" /><path
               d="M -0.00390625,115.195 C 15.8945,115.195 28.8047,128.098 28.8047,144.004 c 0,15.906 -12.9102,28.801 -28.80860625,28.801 C -15.9023,172.805 -28.793,159.91 -28.793,144.004 c 0,-15.906 12.8907,-28.809 28.78909375,-28.809"
               style="fill:#272525;fill-opacity:1;fill-rule:nonzero;stroke:none"
               id="path310" /><path
               d="m 287.988,259.211 c 15.899,0 28.809,12.898 28.809,28.797 0,15.918 -12.91,28.797 -28.809,28.797 -15.898,0 -28.789,-12.879 -28.789,-28.797 0,-15.899 12.891,-28.797 28.789,-28.797"
               style="fill:#272525;fill-opacity:1;fill-rule:nonzero;stroke:none"
               id="path312" /><path
               d="m 144,259.211 c 15.895,0 28.805,12.898 28.805,28.797 0,15.918 -12.91,28.797 -28.805,28.797 -15.898,0 -28.789,-12.879 -28.789,-28.797 0,-15.899 12.891,-28.797 28.789,-28.797"
               style="fill:#272525;fill-opacity:1;fill-rule:nonzero;stroke:none"
               id="path314" /><path
               d="M -0.00390625,259.211 C 15.8945,259.211 28.8047,272.109 28.8047,288.008 c 0,15.918 -12.9102,28.797 -28.80860625,28.797 C -15.9023,316.805 -28.793,303.926 -28.793,288.008 c 0,-15.899 12.8907,-28.797 28.78909375,-28.797"
               style="fill:#272525;fill-opacity:1;fill-rule:nonzero;stroke:none"
               id="path316" /></g></g></g></pattern><clipPath
       clipPathUnits="userSpaceOnUse"
       id="clipPath290"><path
         d="M 0,289 H 288 V 0 H 0 Z"
         id="path288" /></clipPath></defs><g
     inkscape:label="Ebene 1"
     inkscape:groupmode="layer"
     id="layer1"><path
       d="m -9.9211267,22.841651 c -0.2589403,10.11343 -0.8625403,20.21769 -1.7991703,30.29091 -0.23001,2.47403 -0.4071,4.97522 -0.76658,7.43408 -0.1076,0.73731 -0.30727,1.44004 -0.70203,2.07716 -0.12841,0.20779 -0.28928,0.40076 -0.53481,0.63853 -0.0109,0.0109 -0.0434,0.0395 -0.0646,0.0582 -0.0406,0.0325 -0.0808,0.0646 -0.12206,0.0953 -0.12806,0.0952 -0.26317,0.18203 -0.40076,0.26317 -0.0423,0.0166 -0.27022,0.13158 -0.31926,0.15346 -0.0543,0.024 -0.3242,0.12488 -0.34537,0.13723 -0.32491,0.10407 -0.65475,0.1912 -0.98883,0.2607 -0.27905,0.0579 -0.50165,0.0935 -0.97261,0.14817 -0.47202,0.0543 -0.94615,0.0899 -1.42029,0.12241 -2.52553,0.17533 -5.05707,0.26353 -7.58895,0.26458 -2.42253,0.001 -4.84576,-0.0924 -7.26264,-0.25611 -0.55845,-0.0381 -1.6958,0.23495 -1.75542,0.97225 -0.27376,3.402903 0.35666,7.131413 2.29094,10.001613 1.26294,1.8743 3.02542,3.40748 5.02285,4.4898 -3.48157,0.0639 -6.95431,-0.43251 -10.28841,-1.53317 -4.25768,-1.40512 -8.244773,-3.74157 -11.515733,-6.81391 -1.73214,-1.62736 -3.27131,-3.45193 -4.57517,-5.438773 -0.0286,-0.0582 -0.0677,-0.10901 -0.11501,-0.15311 -0.23495,-0.28293 -0.68156,-0.35278 -1.13312,-0.27234 -9.70033,0.25788 -19.407716,0.1531 -29.104166,-0.20567 -4.922661,-0.18274 -9.842852,-0.43145 -14.759163,-0.73978 -2.424291,-0.1524 -4.847521,-0.31891 -7.270041,-0.50024 -1.16417,-0.0868 -2.32869,-0.17674 -3.4925,-0.27093 -0.9137,-0.0741 -1.91241,-0.11818 -2.68817,-0.66428 -0.79057,-0.55668 -1.04634,-1.58609 -1.19274,-2.48744 -0.18203,-1.12253 -0.25647,-2.26977 -0.32103,-3.4043 -0.13652,-2.39324 -0.10619,-4.7946 -0.0374,-7.18996 0.139,-4.82847 0.41134,-9.6393 0.2667,-14.4713 -0.15416,-5.13362 -0.29704,-10.2676 -0.42862,-15.40193 -0.066,-2.56716 -0.12877,-5.13397 -0.18909,-7.70149 -0.042,-1.7914 -0.2286,-4.1920598 1.22519,-5.4853398 0.31504,-0.2801 0.54222,-0.39476 0.87454,-0.54151 0.34819,-0.15381 0.66534,-0.24271 1.15006,-0.34431 0.67098,-0.14111 1.73037,-0.19509 2.56787,-0.20285 2.33045,-0.0219 4.87327,0.0564 7.2845,0.0871 5.10364,0.0653 10.207628,0.13017 15.311264,0.19544 10.243608,0.13053 20.486864,0.26105 30.730466,0.39158 10.27889,0.13124 20.558133,0.26212 30.837013,0.39335 2.54035,0.0325 5.08177,0.0512 7.62212,0.0977 1.97026,0.0363 3.94688,0.2032 5.1689,1.94768 1.24636,1.7794198 1.60549,4.2135798 1.7808203,6.3281298 0.19932,2.39995 0.0815,4.82635 0.0205,7.23018 z m 2.56999,-7.50394 c -0.15734,-2.28776 -0.56656,-4.69618 -1.74237,-6.7013598 -1.1733403,-2.00096 -3.2716603,-2.79365 -5.4916903,-2.97392 -2.48215,-0.20179 -5.01015,-0.10724 -7.49971,-0.13899 -2.64124,-0.0335 -5.28249,-0.0674 -7.92374,-0.1009 -5.31777,-0.0677 -10.63554,-0.13582 -15.954023,-0.20355 -10.60027,-0.13512 -21.200533,-0.27023 -31.800799,-0.40534 -5.282142,-0.0674 -10.564636,-0.13476 -15.846778,-0.20215 -2.676877,-0.0342 -5.353755,-0.0681 -8.030283,-0.1023 -2.47967,-0.0318 -4.97734,-0.15558 -7.45525,-0.0607 -2.01295,0.0769 -4.2164,0.4505 -5.82895,1.74907 -1.81151,1.45838 -2.19674,3.59622 -2.17064,5.8084898 0.0621,5.23663 0.25259,10.47573 0.39723,15.71096 0.14252,5.16643 0.39829,10.33427 0.23918,15.50282 -0.15451,5.01579 -0.49741,10.03582 -0.20214,15.05302 0.12065,2.05176 0.0596,4.78755 1.74872,6.25934 0.84773,0.73836 1.95862,1.02059 3.05082,1.16487 1.16488,0.15417 2.34844,0.20743 3.52002,0.29704 4.99921,0.38171 10.003366,0.70309 15.010341,0.96026 10.219972,0.524233 20.455819,0.784583 30.688839,0.691803 2.14242,-0.0194 4.28449,-0.0586 6.42656,-0.11218 5.25427,7.82884 14.087823,12.91519 23.407863,14.00492 3.02683,0.35384 6.10553,0.28857 9.1186,-0.15946 0.49424,-0.0734 1.09961,-0.26387 1.34938,-0.74788 0.20355,-0.3937 -0.0339,-0.8188 -0.45509,-0.92816 -3.04024,-0.79234 -5.7591,-2.65818 -7.52087,-5.27227 -1.55151,-2.30222 -2.16923,-5.27826 -2.11878,-8.067673 4.70182,0.24941 9.42234,0.21519 14.11817,-0.127 1.73319,-0.12665 3.56517,-0.35701 5.12762,-1.17158 1.50248,-0.78281 2.546,-1.99919 3.04377,-3.62126 0.3132603,-1.02129 0.3598303,-2.11561 0.4727203,-3.17112 0.13794,-1.29364 0.26882,-2.58727 0.39405,-3.88161 0.25012,-2.58939 0.47519,-5.1816 0.68086,-7.77487 0.41487,-5.22711 0.73766,-10.46163 0.96873,-15.70002 0.11712,-2.65501 0.21026,-5.31072 0.28046,-7.96679 0.0663,-2.534 0.1711,-5.08 -0.003,-7.61153"
       style="fill:#272525;fill-opacity:1;fill-rule:nonzero;stroke:none;stroke-width:0.0352778"
       id="path332" /><path
       d="m 5.4183394,309.55292 c 24.9451396,0.67938 51.6490696,-0.38442 76.5223096,-2.38921 1.69862,-0.13697 3.53614,-0.33992 4.77646,-1.50737 1.16846,-1.10094 1.52157,-2.79957 1.70792,-4.39401 1.22761,-10.5052 -0.33846,-22.06635 -0.0138,-32.77991 0.34432,-11.36795 0.6495,-22.73689 0.91509,-34.10681 0.0538,-2.31732 0.0567,-4.81022 -1.26529,-6.71425 -2.05125,-2.9546 -6.2501,-3.2011 -9.84639,-3.15513 -42.05992,0.53604 -84.1198596,1.07258 -126.1798,1.60863 -2.50954,0.0323 -5.21225,0.12769 -7.2053,1.65263 -1.42178,1.08775 -2.27182,2.76435 -2.84505,4.46002 -1.42325,4.21304 -1.39537,8.75964 -1.30538,13.20598 0.24993,12.27767 0.86424,24.54751 1.84093,36.78898 0.48813,6.11952 1.05499,12.23513 1.73678,18.33655 0.61821,5.53407 4.2952,6.82136 9.58865,7.2092 7.19601,0.52774 14.42918,0.54387 21.62763,0.0503 0.38246,4.44782 -0.62066,9.90314 -3.20844,13.541 -2.58827,3.63885 -6.49709,6.31565 -10.82506,7.41367 19.13081,2.89541 35.7457404,-6.49514 43.9786304,-19.22034"
       style="fill:url(#pattern1056);fill-opacity:1;fill-rule:nonzero;stroke:none;stroke-width:0.0489092"
       id="path326"
       sodipodi:nodetypes="csccccccccccccccccc" /><g
       id="g2519"
       transform="matrix(1.3452335,0,0,1.3962944,59.932996,-199.15314)"
       inkscape:export-filename="g2519.png"
       inkscape:export-xdpi="96"
       inkscape:export-ydpi="96"><path
         d="m 75.802679,241.00852 c 17.992725,0.49036 37.253691,-0.27729 55.194901,-1.72332 1.22485,-0.0984 2.55059,-0.24483 3.44523,-1.08762 0.84279,-0.79375 1.09749,-2.01894 1.2319,-3.16865 0.88547,-7.57766 -0.24412,-15.91662 -0.01,-23.64422 0.24836,-8.19961 0.46814,-16.39993 0.6597,-24.60096 0.0392,-1.67146 0.0409,-3.46921 -0.91264,-4.84293 -1.4792,-2.13078 -4.50779,-2.30893 -7.10177,-2.27577 -30.337477,0.38664 -60.674954,0.77364 -91.012425,1.16029 -1.81011,0.0233 -3.75991,0.0921 -5.19748,1.19203 -1.02517,0.78458 -1.6383,1.9939 -2.05176,3.21698 -1.02658,3.03883 -1.00682,6.3186 -0.94156,9.52535 0.18027,8.85579 0.62301,17.70627 1.3275,26.5356 0.35208,4.4143 0.7613,8.82508 1.25272,13.22599 0.44626,3.99203 3.09809,4.92019 6.91656,5.19994 5.190421,0.38065 10.407651,0.39264 15.599481,0.036 0.2293,1.65947 0.0367,4.10563 -1.87219,6.69925 -1.48449,2.01648 -3.42054,2.45992 -4.55189,2.71851 13.798896,2.08844 22.085293,1.01177 28.023601,-8.16645"
         style="fill:#272525;fill-opacity:1;fill-rule:nonzero;stroke:none;stroke-width:0.0352778"
         id="path328" /><path
         d="m 28.429365,194.0432 c 0.25894,10.11343 0.86254,20.21769 1.79917,30.29091 0.23001,2.47403 0.4071,4.97522 0.76658,7.43408 0.1076,0.73731 0.30727,1.44004 0.70203,2.07716 0.12841,0.20779 0.28928,0.40076 0.53481,0.63853 0.0109,0.0109 0.0434,0.0395 0.0646,0.0582 0.0406,0.0324 0.0808,0.0645 0.12206,0.0952 0.12806,0.0952 0.26317,0.18203 0.40076,0.26317 0.0423,0.0166 0.27022,0.13158 0.31926,0.15346 0.0543,0.024 0.3242,0.12488 0.34537,0.13723 0.32491,0.10407 0.65475,0.1912 0.98883,0.2607 0.27905,0.0579 0.50165,0.0935 0.97261,0.14817 0.47202,0.0543 0.94615,0.09 1.42029,0.12241 2.52553,0.17533 5.05707,0.26353 7.588951,0.26458 2.422525,0.001 4.845755,-0.0924 7.262635,-0.25611 0.55845,-0.0381 1.6958,0.23495 1.75542,0.97225 0.27376,3.4029 -0.35666,7.13141 -2.29094,10.00161 -1.26294,1.8743 -3.02542,3.40748 -5.02285,4.4898 3.48157,0.0639 6.95431,-0.43251 10.28841,-1.53317 4.25768,-1.40512 8.24477,-3.74157 11.51573,-6.81391 1.73214,-1.62736 3.27131,-3.45193 4.57517,-5.43877 0.0286,-0.0582 0.0677,-0.10901 0.11501,-0.15311 0.23495,-0.28293 0.68156,-0.35278 1.13312,-0.27234 9.70033,0.25788 19.40772,0.1531 29.104169,-0.20567 4.92266,-0.18274 9.84285,-0.43145 14.75917,-0.73978 2.42428,-0.1524 4.84752,-0.31891 7.27004,-0.50024 1.16417,-0.0868 2.32869,-0.17674 3.4925,-0.27093 0.91369,-0.0741 1.91241,-0.11818 2.68817,-0.66428 0.79057,-0.55668 1.04634,-1.58609 1.19274,-2.48744 0.18203,-1.12253 0.25647,-2.26977 0.32103,-3.4043 0.13652,-2.39324 0.10618,-4.7946 0.0374,-7.18996 -0.139,-4.82847 -0.41134,-9.6393 -0.2667,-14.4713 0.15416,-5.13362 0.29703,-10.2676 0.42862,-15.40193 0.066,-2.56716 0.12876,-5.13397 0.18909,-7.70149 0.042,-1.7914 0.2286,-4.19205 -1.2252,-5.48534 -0.31503,-0.2801 -0.54222,-0.39476 -0.87453,-0.54151 -0.3482,-0.15381 -0.66534,-0.24271 -1.15006,-0.34431 -0.67098,-0.14111 -1.73037,-0.19509 -2.56787,-0.20285 -2.33045,-0.0219 -4.87327,0.0564 -7.28451,0.0871 -5.10364,0.0653 -10.20762,0.13018 -15.31126,0.19544 -10.243619,0.13053 -20.486859,0.26106 -30.730469,0.39158 -10.27889,0.13124 -20.55814,0.26212 -30.837005,0.39335 -2.540351,0.0325 -5.081771,0.0512 -7.622121,0.0977 -1.97026,0.0363 -3.94688,0.2032 -5.1689,1.94769 -1.24637,1.77941 -1.60549,4.21357 -1.78082,6.32812 -0.19932,2.39995 -0.0815,4.82635 -0.0205,7.23018 z m -2.56999,-7.50394 c 0.15734,-2.28776 0.56656,-4.69617 1.74237,-6.70136 1.17334,-2.00096 3.27166,-2.79365 5.49169,-2.97392 2.48215,-0.20179 5.01015,-0.10724 7.49971,-0.13899 2.641241,-0.0335 5.282486,-0.0674 7.923736,-0.1009 5.31777,-0.0677 10.63554,-0.13582 15.95402,-0.20355 10.60027,-0.13512 21.20053,-0.27023 31.8008,-0.40534 5.282139,-0.0674 10.564639,-0.13476 15.846779,-0.20214 2.67688,-0.0342 5.35376,-0.0681 8.03028,-0.10231 2.47968,-0.0318 4.97735,-0.15558 7.45526,-0.0607 2.01295,0.0769 4.2164,0.4505 5.82894,1.74907 1.81152,1.45838 2.19675,3.59622 2.17065,5.80849 -0.0621,5.23663 -0.25259,10.47573 -0.39723,15.71096 -0.14252,5.16643 -0.39829,10.33427 -0.23919,15.50282 0.15452,5.01579 0.49742,10.03582 0.20215,15.05302 -0.12065,2.05176 -0.0596,4.78755 -1.74872,6.25934 -0.84773,0.73836 -1.95863,1.02059 -3.05083,1.16487 -1.16487,0.15417 -2.34844,0.20743 -3.52001,0.29704 -4.99922,0.38171 -10.00337,0.70309 -15.01035,0.96026 -10.21997,0.52423 -20.455819,0.78458 -30.688839,0.6918 -2.14242,-0.0194 -4.28449,-0.0586 -6.42656,-0.11218 -5.25427,7.82884 -14.08782,12.91519 -23.40786,14.00492 -3.02683,0.35384 -6.10553,0.28857 -9.118596,-0.15946 -0.49424,-0.0734 -1.09961,-0.26387 -1.34938,-0.74788 -0.20355,-0.3937 0.0339,-0.8188 0.45509,-0.92816 3.040241,-0.79234 5.759096,-2.65818 7.520866,-5.27227 1.55151,-2.30222 2.16923,-5.27826 2.11878,-8.06767 -4.70182,0.24941 -9.422336,0.21519 -14.118166,-0.127 -1.73319,-0.12665 -3.56517,-0.35701 -5.12762,-1.17158 -1.50248,-0.78281 -2.546,-1.99919 -3.04377,-3.62126 -0.31326,-1.02129 -0.35983,-2.11561 -0.47272,-3.17112 -0.13794,-1.29364 -0.26882,-2.58727 -0.39405,-3.88161 -0.25012,-2.58939 -0.47519,-5.1816 -0.68086,-7.77487 -0.41487,-5.22711 -0.73766,-10.46163 -0.96873,-15.70002 -0.11712,-2.65501 -0.21026,-5.31072 -0.28046,-7.96678 -0.0663,-2.53401 -0.1711,-5.08001 0.003,-7.61154"
         style="fill:#272525;fill-opacity:1;fill-rule:nonzero;stroke:none;stroke-width:0.0352778"
         id="path332-9" /><path
         d="m 72.911005,237.84242 c 17.992724,0.49001 37.253335,-0.27728 55.194555,-1.72332 1.22484,-0.0984 2.55058,-0.24483 3.44522,-1.08761 0.84279,-0.79375 1.0975,-2.01895 1.23191,-3.16865 0.88547,-7.57767 -0.24413,-15.91663 -0.01,-23.64423 0.24835,-8.19961 0.46849,-16.39993 0.66005,-24.60095 0.0388,-1.67146 0.0409,-3.46922 -0.91265,-4.84294 -1.47955,-2.13077 -4.50779,-2.30893 -7.10212,-2.27577 -30.337474,0.38665 -60.674951,0.77329 -91.012428,1.16029 -1.810103,0.0233 -3.759906,0.0921 -5.197122,1.19204 -1.025172,0.78457 -1.638653,1.9939 -2.052108,3.21698 -1.026584,3.03847 -1.006828,6.3186 -0.941564,9.52535 0.180269,8.85578 0.623358,17.70592 1.327855,26.53524 0.352072,4.41431 0.761295,8.82544 1.252714,13.22634 0.445911,3.99168 3.098447,4.91984 6.916208,5.19995 5.19042,0.38029 10.408004,0.39264 15.600187,0.036 0.275519,3.20887 -0.448028,7.1434 -2.314575,9.76736 -1.8669,2.62466 -4.6863,4.55542 -7.807679,5.34776 13.79855,2.08844 25.782764,-4.6856 31.721425,-13.86382"
         style="fill:#ffffff;fill-opacity:1;fill-rule:nonzero;stroke:none;stroke-width:0.0352778"
         id="path330"
         sodipodi:nodetypes="cccccccccscsccccccc" /></g></g></svg>
