<?xml version="1.0" standalone="no"?>
<!DOCTYPE svg PUBLIC "-//W3C//DTD SVG 20010904//EN"
 "http://www.w3.org/TR/2001/REC-SVG-20010904/DTD/svg10.dtd">
<svg version="1.0" xmlns="http://www.w3.org/2000/svg"
 width="236.000000pt" height="236.000000pt" viewBox="0 0 236.000000 236.000000"
 preserveAspectRatio="xMidYMid meet">
<metadata>
Created by potrace 1.14, written by Peter Selinger 2001-2017
</metadata>
<g transform="translate(0.000000,236.000000) scale(0.100000,-0.100000)"
fill="#000000" stroke="none">
<path d="M1101 2025 c-17 -20 -31 -44 -31 -55 0 -17 -6 -18 -47 -14 -99 10
-139 -20 -109 -83 10 -21 18 -40 18 -42 -1 -3 -28 -15 -61 -27 -183 -69 -341
-182 -406 -292 -23 -38 -39 -53 -67 -63 -20 -6 -58 -31 -85 -54 l-48 -43 49
-43 c27 -24 59 -52 71 -61 13 -10 26 -38 34 -73 41 -183 191 -369 371 -459 50
-25 106 -48 126 -52 34 -6 36 -8 30 -37 -8 -41 -39 -102 -51 -102 -37 -2 -84
-18 -89 -30 -9 -24 4 -45 29 -45 22 0 22 -2 12 -30 -9 -25 -9 -33 5 -47 16
-15 19 -14 52 21 33 36 64 42 52 9 -8 -19 11 -53 29 -53 25 0 37 39 30 98 -4
41 -2 70 10 102 15 43 41 80 55 80 4 0 32 -33 63 -73 l56 -73 -16 -53 c-15
-45 -15 -53 -3 -61 23 -15 50 -12 50 5 0 22 18 18 25 -5 3 -11 9 -20 13 -21 4
0 15 -2 25 -4 26 -5 32 20 17 66 -16 48 -10 56 29 33 24 -14 33 -15 45 -5 28
23 2 59 -59 82 -26 10 -52 31 -77 64 l-38 50 74 12 c107 16 212 47 316 92 l92
40 34 -35 c58 -57 102 -72 190 -66 35 3 82 54 90 97 4 24 18 48 35 62 15 13
31 36 36 51 21 60 -6 141 -57 170 -26 15 -27 19 -23 72 5 63 -15 111 -58 142
-27 20 -95 27 -141 15 -26 -7 -28 -5 -29 20 -3 122 -79 334 -151 423 -45 56
-116 107 -183 131 -70 24 -87 27 -162 28 l-63 1 0 45 c0 56 -33 125 -59 125
-10 0 -33 -16 -50 -35z"/>
</g>
</svg>
